<svg xmlns="http://www.w3.org/2000/svg" width="128" height="128"><path fill-rule="evenodd" d="M45.15 248h82.605a130.066 130.066 0 0 0-.255 8c0 2.688.092 5.353.255 8H45.15a215.05 215.05 0 0 1 0-16zM354 420.448c0 16.846 5.555 32.395 14.932 44.916l-8.92 33.288a3.12 3.12 0 0 0 .827 3.087 3.12 3.12 0 0 0 3.087.827l41.134-11.022a74.917 74.917 0 0 0 23.938 3.903c41.421 0 75-33.579 75-75 0-41.422-33.579-75-75-75-41.42.001-74.998 33.58-74.998 75.001zm50.375-.697c0 5.246-4.254 9.5-9.5 9.5s-9.5-4.254-9.5-9.5 4.254-9.5 9.5-9.5 9.5 4.253 9.5 9.5zm58.75 9.5c-5.246 0-9.5-4.254-9.5-9.5s4.254-9.5 9.5-9.5 9.5 4.254 9.5 9.5-4.254 9.5-9.5 9.5zm-24.625-9.5c0 5.246-4.254 9.5-9.5 9.5s-9.5-4.254-9.5-9.5 4.254-9.5 9.5-9.5a9.5 9.5 0 0 1 9.5 9.5zM69.643 96.358A126.678 126.678 0 0 1 52.06 74.415c-1.832-2.898-1.813-6.38.05-9.257l7.161-11.057c1.528-2.36 1.819-5.053.832-7.685l-12.318-32.83a8.556 8.556 0 0 0-12.662-4.219l-17.185 10.98c-7.843 5.011-11.484 14.019-9.323 23.072 6.649 27.864 21.152 52.939 41.197 72.77 19.831 20.045 44.906 34.548 72.77 41.197 9.053 2.16 18.061-1.481 23.072-9.323l10.98-17.185a8.556 8.556 0 0 0-4.219-12.662l-32.83-12.318c-2.632-.988-5.325-.696-7.685.832l-11.057 7.161c-2.877 1.863-6.359 1.882-9.257.05a126.678 126.678 0 0 1-21.943-17.583zm-45.514 301.19h127.742c.539 0 1.072.027 1.599.079l-65.409 43.518-.061.036-.061-.036-65.409-43.518c.527-.052 1.06-.079 1.599-.079zm142.782 10.312-52.52 34.943 52.946 49.637c.43-1.45.662-2.983.662-4.569v-74.194a15.982 15.982 0 0 0-1.088-5.817zm-11.101 95.651a16.045 16.045 0 0 1-3.939.489H24.129c-1.358 0-2.678-.17-3.939-.489l55.068-51.627 3.868 2.574c2.728 1.815 5.793 2.723 8.873 2.723 3.08 0 6.145-.908 8.873-2.723l3.868-2.574 55.07 51.627zM8.662 492.44l52.946-49.637L9.089 407.86A16.003 16.003 0 0 0 8 413.677v74.194c0 1.586.232 3.119.662 4.569zM421 8.525c-15.52 1.648-29.625 8.034-40.838 17.688a272.408 272.408 0 0 0 19.365 2.568 297.877 297.877 0 0 0 21.474 1.28V8.525H421zm-53.339 31.487A74.485 74.485 0 0 0 354.525 75H421V46.057a321.837 321.837 0 0 1-22.974-1.401c-10.301-.998-20.151-2.481-29.402-4.384a7.973 7.973 0 0 1-.963-.26zM354.525 91a74.47 74.47 0 0 0 13.136 34.988 8.11 8.11 0 0 1 .963-.26c9.251-1.903 19.101-3.386 29.402-4.384A322.423 322.423 0 0 1 421 119.943V91h-66.475zm25.637 48.787c11.214 9.652 25.318 16.04 40.838 17.688v-21.536c-7.442.181-14.614.615-21.474 1.28a272.379 272.379 0 0 0-19.364 2.568zM437 157.475c15.52-1.648 29.625-8.034 40.838-17.688a272.456 272.456 0 0 0-19.364-2.568 297.911 297.911 0 0 0-21.474-1.28v21.536zm53.339-31.487A74.485 74.485 0 0 0 503.475 91H437v28.943c7.753.195 15.432.67 22.974 1.401 10.301.998 20.151 2.481 29.402 4.384.33.068.651.155.963.26zM503.475 75a74.485 74.485 0 0 0-13.136-34.988 7.973 7.973 0 0 1-.963.26c-9.251 1.903-19.101 3.386-29.402 4.384A322.423 322.423 0 0 1 437 46.057V75h66.475zm-25.637-48.787C466.624 16.561 452.52 10.174 437 8.525v21.536a297.911 297.911 0 0 0 21.474-1.28 272.456 272.456 0 0 0 19.364-2.568zM256 143.5c62.132 0 112.5 50.368 112.5 112.5S318.132 368.5 256 368.5 143.5 318.132 143.5 256 193.867 143.5 256 143.5zm.001 37.969c-21.937 0-39.721 17.784-39.721 39.721 0 21.937 17.784 39.721 39.721 39.721 21.937 0 39.721-17.784 39.721-39.721 0-21.937-17.784-39.721-39.721-39.721zM256 265.912c-34.078 0-63.089 21.715-73.971 52.055C167.97 301.202 159.5 279.591 159.5 256c0-53.295 43.204-96.5 96.5-96.5s96.5 43.204 96.5 96.5c0 23.591-8.47 45.202-22.529 61.966-10.875-30.345-39.885-52.054-73.971-52.054zM256 13c34.445 0 67.216 7.169 96.904 20.094a90.866 90.866 0 0 0-7.604 14.149C317.891 35.503 287.705 29 256 29c-62.685 0-119.435 25.408-160.514 66.486-.353.353-.702.71-1.053 1.066-4.335-3.142-8.44-6.6-12.282-10.331.67-.687 1.344-1.369 2.023-2.048C128.148 40.199 188.899 13 256 13zm222.906 146.096C491.831 188.784 499 221.554 499 256c0 31.89-6.147 62.344-17.315 90.245a90.964 90.964 0 0 0-13.981-8.17C477.579 312.621 483 284.944 483 256c0-31.705-6.503-61.891-18.243-89.299a90.955 90.955 0 0 0 14.149-7.605zM348.207 480.893C319.773 492.563 288.638 499 256 499c-25.069 0-49.251-3.798-72.004-10.847.001-.094.004-.188.004-.282V471.34c22.624 7.561 46.833 11.66 72 11.66 33.018 0 64.388-7.052 92.69-19.728a91.234 91.234 0 0 0 2.892 5.023l-3.375 12.598zM47.908 381.548h18.947C42.938 345.59 29 302.423 29 256c0-40.518 10.619-78.554 29.219-111.483a175.619 175.619 0 0 1-12.571-10.249C24.889 170.063 13 211.643 13 256c0 45.942 12.753 88.906 34.908 125.548zM248 127.756a130.04 130.04 0 0 1 8-.255c2.688 0 5.354.092 8 .255V45.15a215.01 215.01 0 0 0-16 0v82.606zM384.245 248c.163 2.647.255 5.312.255 8 0 2.688-.092 5.353-.255 8h82.605a212.906 212.906 0 0 0 0-16h-82.605zM264 384.244a130.09 130.09 0 0 1-8 .255c-2.688 0-5.353-.092-8-.255v82.605a212.866 212.866 0 0 0 16 0v-82.605z" clip-rule="evenodd"/></svg>